<svg id="Capa_1" enable-background="new 0 0 512 512" height="512" viewBox="0 0 512 512" width="512" xmlns="http://www.w3.org/2000/svg"><g><g><path d="m406.059 152.858v321.627c0 16.577-13.435 30.012-30.012 30.012h-240.094c-16.577 0-30.012-13.435-30.012-30.012v-321.627l30.012-30.012h240.095z" fill="#f5f8f9"/><path d="m376.047 122.846h-170.067-70.028l-30.012 30.012v30.012 291.615c0 16.575 13.437 30.012 30.012 30.012h70.028c-16.577 0-30.012-13.435-30.012-30.012v-271.01c0-11.49 6.633-21.823 16.894-26.993 1.056-.532 2.094-1.094 3.114-1.685 8.834 5.122 19.088 8.073 30.012 8.073s21.178-2.951 30.012-8.073c8.834 5.122 19.088 8.073 30.012 8.073s21.178-2.951 30.012-8.073c8.834 5.122 19.088 8.073 30.012 8.073s21.178-2.951 30.012-8.073c8.834 5.122 19.088 8.073 30.012 8.073v-30.012z" fill="#e8edf2"/><path d="m205.98 504.497h-70.028c-16.577 0-30.012-13.435-30.012-30.012v-30.012h70.028v30.012c0 16.577 13.436 30.012 30.012 30.012z" fill="#9b8e99"/><path d="m105.953 152.858h-.024c-16.569 0-30-13.431-30-30v-30.023h60.024v30.024c0 16.568-13.432 29.999-30 29.999z" fill="#f07281"/><path d="m346.047 152.858h-.024c-16.569 0-30-13.431-30-30v-30.023h60.024v30.024c0 16.568-13.431 29.999-30 29.999z" fill="#f07281"/><path d="m165.976 152.858h-.024c-16.569 0-30-13.431-30-30v-30.023h60.024v30.024c0 16.568-13.431 29.999-30 29.999z" fill="#eb5569"/><path d="m286.024 152.858h-.024c-16.569 0-30-13.431-30-30v-30.023h60.024v30.024c0 16.568-13.432 29.999-30 29.999z" fill="#eb5569"/><path d="m226 152.858h-.024c-16.569 0-30-13.431-30-30v-30.023h60.024v30.024c0 16.568-13.431 29.999-30 29.999z" fill="#f07281"/><path d="m406.071 152.858h-.024c-16.569 0-30-13.431-30-30v-30.023h60.024v30.024c0 16.568-13.431 29.999-30 29.999z" fill="#eb5569"/><path d="m376.059 504.497h-240.118c-16.569 0-30-13.431-30-30v-30.024h300.118v30.024c0 16.569-13.431 30-30 30z" fill="#918291"/><path d="m205.98 504.497h-70.028c-16.577 0-30.012-13.435-30.012-30.012v-30.012h70.028v30.012c0 16.577 13.436 30.012 30.012 30.012z" fill="#7a6d79"/><path d="m406.059 37.515h-300.118v-.012c0-16.569 13.431-30 30-30h240.119c16.569 0 30 13.431 30 30v.012z" fill="#aa9ea9"/><path d="m271.012 504.497h-30.024c-8.284 0-15-6.716-15-15v-30.024c0-8.284 6.716-15 15-15h30.024c8.284 0 15 6.716 15 15v30.024c0 8.284-6.716 15-15 15z" fill="#f5f8f9"/><path d="m436.071 92.835h-360.142l30.012-55.32h300.118z" fill="#f07281"/><path d="m221.312 309.612h-45.573c-17.966 0-32.53-14.564-32.53-32.53v-.026c0-17.966 14.564-32.53 32.53-32.53h45.573z" fill="#f07281"/><path d="m301.409 355.172h-.012c-8.284 0-15-6.716-15-15v-126.206c0-8.284 6.716-15 15-15h.012c8.284 0 15 6.716 15 15v126.206c0 8.284-6.715 15-15 15z" fill="#aa9ea9"/><path d="m190.51 379.037h-.012c-8.624 0-15.614-6.991-15.614-15.614v-53.811h31.241v53.811c0 8.623-6.991 15.614-15.615 15.614z" fill="#f5f8f9"/></g><g><path d="m442.639 89.21-29.158-53.748c-.381-7.131-2.732-13.919-6.894-19.725-7.023-9.854-18.435-15.737-30.527-15.737h-240.12c-20.005 0-36.4 15.747-37.445 35.505l-29.134 53.705c-.594 1.074-.934 2.308-.934 3.622v30.024c0 18.115 12.911 33.269 30.014 36.748v59.445c0 4.142 3.357 7.5 7.5 7.5s7.5-3.358 7.5-7.5v-59.446c9.149-1.862 17.097-7.064 22.512-14.274 6.85 9.118 17.755 15.027 30.024 15.027 12.254 0 23.153-5.909 30-15.026 6.847 9.117 17.746 15.026 30 15.026h.023c12.254 0 23.154-5.909 30.001-15.027 6.85 9.118 17.755 15.027 30.024 15.027 12.254 0 23.153-5.909 30-15.026 6.847 9.117 17.746 15.026 30 15.026h.024c12.254 0 23.154-5.909 30.001-15.027 5.413 7.206 13.359 12.407 22.51 14.271v277.38h-36.33c-4.143 0-7.5 3.358-7.5 7.5s3.357 7.5 7.5 7.5h36.329v22.52c0 12.407-10.094 22.5-22.5 22.5h-83.838c.833-2.347 1.29-4.871 1.29-7.5v-30.024c0-2.628-.457-5.149-1.289-7.496h37.317c4.143 0 7.5-3.358 7.5-7.5s-3.357-7.5-7.5-7.5h-58.355c-.058 0-.115-.004-.173-.004h-30.023c-.058 0-.115.004-.173.004h-127.375v-185.24c0-4.142-3.357-7.5-7.5-7.5s-7.5 3.358-7.5 7.5v222.76c0 20.678 16.822 37.5 37.5 37.5h105.048 30.023 105.049c20.678 0 37.5-16.822 37.5-37.5v-314.895c17.103-3.479 30.014-18.633 30.014-36.748v-30.024c-.001-1.315-.341-2.549-.935-3.623zm-329.199 385.29v-22.52h106.336c-.832 2.346-1.289 4.868-1.289 7.496v30.024c0 2.629.458 5.153 1.29 7.5h-83.837c-12.406 0-22.5-10.093-22.5-22.5zm127.548 22.5c-4.136 0-7.5-3.364-7.5-7.5v-30.024c0-4.107 3.318-7.448 7.413-7.496h30.197c4.095.047 7.413 3.389 7.413 7.496v30.024c0 4.136-3.364 7.5-7.5 7.5zm-130.584-451.99h219.136c4.143 0 7.5-3.358 7.5-7.5s-3.357-7.5-7.5-7.5h-214.818c3.092-8.736 11.436-15.01 21.218-15.01h240.12c7.253 0 14.1 3.53 18.325 9.459 1.234 1.722 2.206 3.587 2.899 5.551h-35.054c-4.143 0-7.5 3.358-7.5 7.5s3.357 7.5 7.5 7.5h39.365l21.873 40.32h-334.937zm-4.453 100.347h-.024c-12.406 0-22.5-10.093-22.5-22.5v-22.524h45.024v22.524c0 12.407-10.094 22.5-22.5 22.5zm60 0c-12.406 0-22.5-10.093-22.5-22.5v-22.527h45.024v22.527c.001 12.407-10.093 22.5-22.524 22.5zm60.049 0h-.024c-12.406 0-22.5-10.093-22.5-22.5v-22.524h45.024v22.524c0 12.407-10.094 22.5-22.5 22.5zm60 0c-12.406 0-22.5-10.093-22.5-22.5v-22.527h45.024v22.527c0 12.407-10.093 22.5-22.524 22.5zm60.049 0h-.024c-12.406 0-22.5-10.093-22.5-22.5v-22.524h45.024v22.524c0 12.407-10.094 22.5-22.5 22.5zm60 0c-12.406 0-22.5-10.093-22.5-22.5v-22.527h45.024v22.527c0 12.407-10.094 22.5-22.524 22.5z"/><path d="m190.497 386.539h.013c12.745 0 23.114-10.369 23.114-23.115v-46.311h5.917l60.55 30.275c3.014 8.878 11.424 15.286 21.307 15.286h.013c12.406 0 22.5-10.093 22.5-22.5v-126.209c0-12.407-10.094-22.5-22.513-22.5-9.883 0-18.292 6.408-21.307 15.285l-60.55 30.275h-43.804c-22.073 0-40.03 17.958-40.03 40.057 0 19.208 13.6 35.293 31.676 39.147v47.194c0 12.746 10.369 23.116 23.114 23.116zm8.127-23.115c0 4.475-3.64 8.115-8.114 8.115h-.013c-4.475 0-8.114-3.64-8.114-8.115v-46.311h16.241zm102.786-156.959c4.136 0 7.5 3.365 7.5 7.5v126.208c0 4.135-3.364 7.5-7.5 7.5h-.013c-4.136 0-7.5-3.365-7.5-7.5v-126.208c0-4.135 3.365-7.5 7.513-7.5zm-22.513 123.556-50.086-25.043v-55.816l50.086-25.043zm-128.19-52.965c0-13.802 11.229-25.03 25.03-25.03h38.074v50.087h-7.688-30.387c-13.8 0-25.029-11.229-25.029-25.057z"/><path d="m374.097 210.223c-2.93-2.929-7.678-2.929-10.607 0l-24.299 24.299c-2.929 2.929-2.929 7.678 0 10.606 1.465 1.464 3.385 2.197 5.304 2.197s3.839-.732 5.304-2.197l24.299-24.299c2.927-2.928 2.927-7.677-.001-10.606z"/><path d="m339.19 320.177 24.299 24.299c1.465 1.464 3.385 2.197 5.304 2.197s3.839-.732 5.304-2.197c2.929-2.929 2.929-7.678 0-10.606l-24.299-24.299c-2.93-2.929-7.678-2.929-10.607 0s-2.929 7.678-.001 10.606z"/><path d="m368.793 269.569h-24.299c-4.143 0-7.5 3.358-7.5 7.5s3.357 7.5 7.5 7.5h24.299c4.143 0 7.5-3.358 7.5-7.5s-3.357-7.5-7.5-7.5z"/></g></g></svg>