<?xml version="1.0" standalone="no"?>
<!DOCTYPE svg PUBLIC "-//W3C//DTD SVG 20010904//EN"
 "http://www.w3.org/TR/2001/REC-SVG-20010904/DTD/svg10.dtd">
<svg version="1.0" xmlns="http://www.w3.org/2000/svg"
 width="467.000000pt" height="530.000000pt" viewBox="0 0 467.000000 530.000000"
 preserveAspectRatio="xMidYMid meet">
<metadata>
Created by potrace 1.16, written by Peter Selinger 2001-2019
</metadata>
<g transform="translate(0.000000,530.000000) scale(0.100000,-0.100000)"
fill="#000000" stroke="none">
<path d="M2110 3684 c-47 -9 -185 -57 -235 -82 -93 -45 -217 -135 -291 -208
-105 -105 -206 -263 -244 -378 -8 -25 -15 -34 -20 -26 -19 30 -478 32 -500 2
-3 -4 -18 -15 -33 -25 -15 -10 -33 -30 -40 -45 -6 -15 -16 -30 -22 -34 -14
-10 -14 -566 0 -576 6 -4 18 -20 27 -37 9 -16 28 -39 43 -50 27 -20 58 -22
260 -17 28 1 110 1 183 -1 l132 -3 43 -75 c157 -275 405 -452 731 -522 66 -14
316 -13 382 1 74 15 185 51 201 63 19 16 16 43 -7 64 -20 18 -23 18 -88 -2
-118 -38 -184 -47 -312 -47 -94 1 -147 6 -215 23 -96 24 -299 117 -330 151
-18 20 -18 24 -2 108 11 57 22 90 33 97 74 45 102 98 85 162 -6 21 -11 50 -11
65 0 19 -9 31 -35 47 l-36 21 -10 -28 c-6 -15 -8 -45 -4 -67 16 -91 14 -98
-33 -120 -46 -21 -48 -25 -72 -149 l-12 -58 -45 43 c-58 58 -153 198 -182 274
-32 80 -34 81 -91 89 -27 4 -52 11 -55 16 -3 5 -17 -2 -32 -16 -38 -35 -70
-41 -101 -17 -26 19 -27 25 -30 116 l-3 97 -37 -20 c-20 -11 -51 -20 -69 -20
l-33 0 0 -64 c0 -53 -4 -70 -22 -90 -32 -36 -77 -43 -108 -18 l-25 20 0 240
c0 302 -9 286 150 280 71 -2 118 -9 131 -18 19 -12 24 -11 39 3 23 23 87 22
108 -1 13 -15 17 -39 17 -110 0 -51 2 -92 5 -92 2 0 19 9 37 20 18 11 44 20
57 20 13 0 29 8 36 17 15 21 71 21 91 1 13 -13 22 -13 45 -5 36 14 37 35 3 87
-15 22 -25 42 -23 43 59 40 83 68 129 149 29 51 69 113 90 138 51 62 60 82 60
136 0 50 -36 126 -65 138 -24 9 -18 19 34 54 135 88 304 148 446 159 l80 6
-36 -44 c-34 -41 -47 -48 -179 -94 l-143 -50 -44 -104 c-23 -57 -43 -109 -43
-116 0 -6 27 -49 59 -95 l59 -83 -63 -77 c-76 -93 -102 -141 -111 -209 -7 -57
-3 -60 49 -35 26 12 36 25 45 58 11 43 128 198 157 210 9 3 40 6 70 6 43 0 54
-3 58 -19 5 -21 62 -62 118 -85 34 -14 39 -14 75 4 31 16 44 18 74 10 49 -13
61 -29 109 -140 43 -100 87 -154 134 -165 26 -7 27 -6 27 34 0 34 -6 46 -31
69 -68 59 -69 61 -69 102 0 85 -61 157 -154 184 -68 20 -96 20 -124 1 -29 -21
-57 -6 -66 35 -8 42 -59 64 -138 58 -44 -3 -58 -1 -58 9 0 20 60 53 96 53 41
0 70 31 55 58 -6 12 -20 24 -32 27 -36 12 -117 -15 -156 -51 -39 -37 -39 -37
-76 26 -14 23 -13 31 15 97 l30 72 67 22 c193 64 212 74 275 155 l59 75 41 -6
c331 -51 606 -255 741 -548 18 -40 38 -90 45 -112 11 -38 10 -43 -16 -83 l-29
-43 -13 39 c-7 21 -34 63 -60 91 -41 47 -53 54 -94 58 -62 7 -94 -2 -114 -33
-13 -19 -15 -30 -6 -49 9 -20 7 -26 -11 -39 -22 -15 -22 -15 7 -15 16 -1 38
-8 48 -18 17 -15 20 -15 44 8 15 14 23 31 21 41 -8 30 20 21 49 -16 15 -19 40
-67 55 -108 l27 -73 49 -2 c43 -2 51 1 66 25 l16 27 1 -27 c0 -24 4 -27 33
-27 17 0 41 -1 52 -3 15 -2 21 3 23 22 7 63 14 90 28 105 17 17 66 20 94 5 20
-11 45 -74 35 -90 -3 -5 -1 -10 4 -10 6 0 11 7 11 15 0 17 53 47 77 43 10 -2
19 8 26 27 16 49 26 56 76 53 73 -5 79 -23 80 -284 l2 -215 -30 -29 c-32 -33
-57 -37 -87 -16 -16 13 -21 13 -36 0 -10 -10 -31 -14 -55 -12 -32 2 -41 8 -54
36 -14 28 -17 30 -22 12 -3 -10 -21 -27 -40 -36 -31 -15 -38 -15 -64 -2 -27
13 -32 13 -52 -4 -34 -27 -59 -22 -97 18 l-33 37 -17 -39 c-84 -193 -141 -280
-263 -398 -39 -37 -71 -72 -71 -78 0 -24 23 -48 45 -48 50 0 223 189 300 327
l29 52 261 3 c212 3 268 7 304 20 25 9 48 23 52 30 4 7 17 24 28 37 11 13 24
45 27 72 4 27 10 49 15 49 5 0 9 74 9 165 0 103 -4 165 -10 165 -5 0 -10 21
-10 46 0 101 -21 144 -106 214 -28 23 -195 21 -218 -3 -20 -20 -24 -21 -136
-21 -47 -1 -101 -5 -121 -9 -35 -9 -35 -8 -48 35 -19 64 -85 192 -138 267
-132 185 -317 322 -541 398 -72 24 -90 26 -297 28 -121 2 -231 1 -245 -1z
m-411 -355 c28 -27 43 -66 35 -93 -3 -11 -23 -41 -44 -66 -20 -25 -61 -87 -89
-137 -43 -75 -62 -98 -107 -129 -58 -40 -68 -69 -39 -108 21 -27 19 -36 -8
-36 -13 0 -34 11 -47 25 l-23 24 17 68 c34 134 97 266 174 363 45 57 94 110
102 110 3 0 16 -9 29 -21z"/>
<path d="M2490 3140 c-15 -29 2 -56 45 -70 50 -17 95 -57 95 -86 0 -13 10 -44
22 -69 22 -44 23 -45 70 -45 26 0 48 3 48 8 0 4 -14 30 -30 57 -16 28 -30 64
-30 82 0 26 -10 40 -50 75 -76 65 -150 86 -170 48z"/>
<path d="M2679 2513 c-76 -82 -91 -125 -69 -202 8 -30 6 -38 -18 -70 -42 -54
-102 -157 -102 -174 0 -15 -43 -63 -71 -78 -11 -5 -20 -4 -27 4 -8 10 -66 152
-85 209 -3 9 1 40 9 70 18 69 19 66 -19 82 -19 7 -44 26 -57 42 l-23 29 8 -40
c9 -46 9 -69 0 -145 -6 -50 -3 -65 40 -170 67 -164 102 -193 188 -156 44 18
104 81 118 123 13 40 38 82 92 156 38 52 39 52 32 124 -5 64 -3 76 15 101 17
23 20 40 18 86 l-3 59 -46 -50z"/>
<path d="M2855 2346 c-15 -26 -38 -49 -56 -56 -41 -17 -59 -47 -63 -106 -2
-27 -8 -65 -13 -85 -14 -50 4 -98 45 -122 28 -16 37 -17 62 -7 16 7 38 26 49
44 30 49 91 257 84 286 -6 25 -60 90 -75 90 -4 0 -19 -20 -33 -44z"/>
</g>
</svg>
